<?xml version="1.0" encoding="utf-8" ?>
<!DOCTYPE svg PUBLIC "-//W3C//DTD SVG 1.1//EN" "http://www.w3.org/Graphics/SVG/1.1/DTD/svg11.dtd">
<svg height="723" version="1.1" width="1136" xmlns="http://www.w3.org/2000/svg">
<polygon fill="#ffffff" points="18,213 200,213 200,236 249,236 249,708 18,708 18,213" stroke="#ffffff" stroke-width="1"/>
<rect fill="none" height="23" stroke="#000000" stroke-width="1" width="182" x="18" y="213"/>
<text font-family="Dialog" font-size="12" x="23" y="226">
net</text>
<rect fill="none" height="472" stroke="#000000" stroke-width="1" width="231" x="18" y="236"/>
<rect fill="#c8c8ff" height="104" stroke="#c8c8ff" stroke-width="1" width="145" x="82" y="595"/>
<rect fill="none" height="104" stroke="#000000" stroke-width="1" width="145" x="82" y="595"/>
<text font-family="Dialog" font-size="12" x="120" y="608">
ChatServer</text>
<rect fill="#000000" height="1" stroke="#000000" stroke-width="1" width="145" x="82" y="618"/>
<text font-family="Dialog" font-size="12" x="86" y="632">
port : Integer</text>
<text font-family="Dialog" font-size="12" x="86" y="648">
socket : ServerSocket</text>
<rect fill="#000000" height="1" stroke="#000000" stroke-width="1" width="145" x="82" y="658"/>
<text font-family="Dialog" font-size="12" x="86" y="672">
startServer()</text>
<line fill="#000000" stroke="#000000" stroke-width="1" x1="86" x2="126" y1="689" y2="689"/>
<text font-family="Dialog" font-size="12" x="86" y="688">
main()</text>
<rect fill="#c8c8ff" height="107" stroke="#c8c8ff" stroke-width="1" width="130" x="87" y="446"/>
<rect fill="none" height="107" stroke="#000000" stroke-width="1" width="130" x="87" y="446"/>
<text font-family="Dialog" font-size="12" x="113" y="478">
RemoteUser</text>
<text font-family="Dialog" font-size="12" x="111" y="460">
&lt;&lt;thread&gt;&gt;</text>
<rect fill="#000000" height="1" stroke="#000000" stroke-width="1" width="130" x="87" y="488"/>
<text font-family="Dialog" font-size="12" x="91" y="502">
socket : Socket</text>
<rect fill="#000000" height="1" stroke="#000000" stroke-width="1" width="130" x="87" y="512"/>
<text font-family="Dialog" font-size="12" x="91" y="526">
run()</text>
<text font-family="Dialog" font-size="12" x="91" y="542">
executeCommand()</text>
<line fill="#000000" stroke="#000000" stroke-width="1" x1="138" x2="138" y1="595" y2="590"/>
<line fill="#000000" stroke="#000000" stroke-width="1" x1="138" x2="138" y1="585" y2="580"/>
<line fill="#000000" stroke="#000000" stroke-width="1" x1="138" x2="138" y1="575" y2="570"/>
<line fill="#000000" stroke="#000000" stroke-width="1" x1="138" x2="138" y1="565" y2="560"/>
<line fill="#000000" stroke="#000000" stroke-width="1" x1="138" x2="138" y1="555" y2="552"/>
<line fill="#000000" stroke="#000000" stroke-width="1" x1="145" x2="138" y1="564" y2="552"/>
<line fill="#000000" stroke="#000000" stroke-width="1" x1="131" x2="138" y1="564" y2="552"/>
<text font-family="Dialog" font-size="12" x="141" y="575">
create</text>
<polygon fill="#ffffff" points="274,149 768,149 768,172 817,172 817,708 274,708 274,149" stroke="#ffffff" stroke-width="1"/>
<rect fill="none" height="23" stroke="#000000" stroke-width="1" width="494" x="274" y="149"/>
<text font-family="Dialog" font-size="12" x="279" y="162">
domain</text>
<rect fill="none" height="536" stroke="#000000" stroke-width="1" width="543" x="274" y="172"/>
<rect fill="#ffffc8" height="104" stroke="#ffffc8" stroke-width="1" width="194" x="354" y="341"/>
<rect fill="none" height="104" stroke="#000000" stroke-width="1" width="194" x="354" y="341"/>
<text font-family="Dialog" font-size="12" x="402" y="354">
RegisteredUser</text>
<rect fill="#000000" height="1" stroke="#000000" stroke-width="1" width="194" x="354" y="364"/>
<rect fill="#000000" height="1" stroke="#000000" stroke-width="1" width="194" x="354" y="386"/>
<text font-family="Dialog" font-size="12" x="358" y="400">
addObserver(observer)</text>
<text font-family="Dialog" font-size="12" x="358" y="416">
removeObserver(observer)</text>
<text font-family="Dialog" font-size="12" x="358" y="432">
checkPassord(pwd) : Boolean</text>
<polyline fill="none" points="202,446 202,413 354,413" stroke="#000000" stroke-width="1"/>
<line fill="#000000" stroke="#000000" stroke-width="1" x1="342" x2="354" y1="420" y2="413"/>
<line fill="#000000" stroke="#000000" stroke-width="1" x1="342" x2="354" y1="406" y2="413"/>
<text font-family="Dialog" font-size="12" x="335" y="408">
1</text>
<text font-family="Dialog" font-size="12" x="298" y="429">
user</text>
<rect fill="#ffffc8" height="83" stroke="#ffffc8" stroke-width="1" width="189" x="618" y="301"/>
<rect fill="none" height="83" stroke="#000000" stroke-width="1" width="189" x="618" y="301"/>
<text font-family="Dialog" font-size="12" x="678" y="333">
Participant</text>
<text font-family="Dialog" font-size="12" x="664" y="315">
&lt;&lt;interface&gt;&gt;</text>
<rect fill="#000000" height="1" stroke="#000000" stroke-width="1" width="189" x="618" y="343"/>
<text font-family="Dialog" font-size="12" x="622" y="357">
getNickname() : String</text>
<text font-family="Dialog" font-size="12" x="622" y="373">
deliverMessage(sender,msg)</text>
<line fill="#000000" stroke="#000000" stroke-width="1" x1="547" x2="552" y1="429" y2="429"/>
<line fill="#000000" stroke="#000000" stroke-width="1" x1="557" x2="562" y1="429" y2="429"/>
<line fill="#000000" stroke="#000000" stroke-width="1" x1="567" x2="572" y1="429" y2="429"/>
<line fill="#000000" stroke="#000000" stroke-width="1" x1="577" x2="582" y1="429" y2="429"/>
<line fill="#000000" stroke="#000000" stroke-width="1" x1="587" x2="592" y1="429" y2="429"/>
<line fill="#000000" stroke="#000000" stroke-width="1" x1="597" x2="602" y1="429" y2="429"/>
<line fill="#000000" stroke="#000000" stroke-width="1" x1="607" x2="612" y1="429" y2="429"/>
<line fill="#000000" stroke="#000000" stroke-width="1" x1="617" x2="622" y1="429" y2="429"/>
<line fill="#000000" stroke="#000000" stroke-width="1" x1="627" x2="632" y1="429" y2="429"/>
<line fill="#000000" stroke="#000000" stroke-width="1" x1="637" x2="642" y1="429" y2="429"/>
<line fill="#000000" stroke="#000000" stroke-width="1" x1="647" x2="652" y1="429" y2="429"/>
<line fill="#000000" stroke="#000000" stroke-width="1" x1="657" x2="662" y1="429" y2="429"/>
<line fill="#000000" stroke="#000000" stroke-width="1" x1="666" x2="666" y1="429" y2="424"/>
<line fill="#000000" stroke="#000000" stroke-width="1" x1="666" x2="666" y1="419" y2="414"/>
<line fill="#000000" stroke="#000000" stroke-width="1" x1="666" x2="666" y1="409" y2="404"/>
<line fill="#000000" stroke="#000000" stroke-width="1" x1="666" x2="666" y1="399" y2="394"/>
<line fill="#000000" stroke="#000000" stroke-width="1" x1="666" x2="666" y1="389" y2="384"/>
<polygon fill="#ffffff" points="666,383 673,395 659,395" stroke="#ffffff" stroke-width="1"/>
<polygon fill="none" points="666,383 673,395 659,395" stroke="#000000" stroke-width="1"/>
<rect fill="#ffffc8" height="213" stroke="#ffffc8" stroke-width="1" width="281" x="314" y="486"/>
<rect fill="none" height="213" stroke="#000000" stroke-width="1" width="281" x="314" y="486"/>
<text font-family="Dialog" font-size="12" x="440" y="499">
Chat</text>
<rect fill="#000000" height="1" stroke="#000000" stroke-width="1" width="281" x="314" y="509"/>
<rect fill="#000000" height="1" stroke="#000000" stroke-width="1" width="281" x="314" y="530"/>
<text font-family="Dialog" font-size="12" x="318" y="544">
login(nickname,password) : RegisteredUser</text>
<text font-family="Dialog" font-size="12" x="318" y="560">
logout(RegisteredUser)</text>
<text font-family="Dialog" font-size="12" x="318" y="576">
register(nickname,email,password)</text>
<text font-family="Dialog" font-size="12" x="318" y="592">
sendMessage(sender,recipient,msg)</text>
<text font-family="Dialog" font-size="12" x="318" y="608">
broadCastMessage(sender,msg)</text>
<text font-family="Dialog" font-size="12" x="318" y="624">
welcome(recipient)</text>
<text font-family="Dialog" font-size="12" x="318" y="640">
shutdown()</text>
<text font-family="Dialog" font-size="12" x="318" y="656">
requestFriendship(requester,requested)</text>
<text font-family="Dialog" font-size="12" x="318" y="672">
acceptFriendship(requested,requester)</text>
<text font-family="Dialog" font-size="12" x="318" y="688">
rejectFriendship(requested,requester)</text>
<polyline fill="none" points="226,613 314,613" stroke="#000000" stroke-width="1"/>
<line fill="#000000" stroke="#000000" stroke-width="1" x1="302" x2="314" y1="620" y2="613"/>
<line fill="#000000" stroke="#000000" stroke-width="1" x1="302" x2="314" y1="606" y2="613"/>
<text font-family="Dialog" font-size="12" x="290" y="608">
1</text>
<text font-family="Dialog" font-size="12" x="275" y="628">
chat</text>
<polyline fill="none" points="594,557 778,557 778,383" stroke="#000000" stroke-width="1"/>
<line fill="#000000" stroke="#000000" stroke-width="1" x1="785" x2="778" y1="395" y2="383"/>
<line fill="#000000" stroke="#000000" stroke-width="1" x1="771" x2="778" y1="395" y2="383"/>
<text font-family="Dialog" font-size="12" x="784" y="409">
0..*</text>
<text font-family="Dialog" font-size="12" x="697" y="414">
loggedUsers</text>
<rect fill="#ffffc8" height="67" stroke="#ffffc8" stroke-width="1" width="187" x="298" y="197"/>
<rect fill="none" height="67" stroke="#000000" stroke-width="1" width="187" x="298" y="197"/>
<text font-family="Dialog" font-size="12" x="315" y="229">
RegisteredUserObserver</text>
<text font-family="Dialog" font-size="12" x="343" y="211">
&lt;&lt;interface&gt;&gt;</text>
<rect fill="#000000" height="1" stroke="#000000" stroke-width="1" width="187" x="298" y="239"/>
<text font-family="Dialog" font-size="12" x="302" y="253">
messageTaken(sender,msg)</text>
<line fill="#000000" stroke="#000000" stroke-width="1" x1="162" x2="162" y1="446" y2="441"/>
<line fill="#000000" stroke="#000000" stroke-width="1" x1="162" x2="162" y1="436" y2="431"/>
<line fill="#000000" stroke="#000000" stroke-width="1" x1="162" x2="162" y1="426" y2="421"/>
<line fill="#000000" stroke="#000000" stroke-width="1" x1="162" x2="162" y1="416" y2="411"/>
<line fill="#000000" stroke="#000000" stroke-width="1" x1="162" x2="162" y1="406" y2="401"/>
<line fill="#000000" stroke="#000000" stroke-width="1" x1="162" x2="162" y1="396" y2="391"/>
<line fill="#000000" stroke="#000000" stroke-width="1" x1="162" x2="162" y1="386" y2="381"/>
<line fill="#000000" stroke="#000000" stroke-width="1" x1="162" x2="162" y1="376" y2="371"/>
<line fill="#000000" stroke="#000000" stroke-width="1" x1="162" x2="162" y1="366" y2="361"/>
<line fill="#000000" stroke="#000000" stroke-width="1" x1="162" x2="162" y1="356" y2="351"/>
<line fill="#000000" stroke="#000000" stroke-width="1" x1="162" x2="162" y1="346" y2="341"/>
<line fill="#000000" stroke="#000000" stroke-width="1" x1="162" x2="162" y1="336" y2="331"/>
<line fill="#000000" stroke="#000000" stroke-width="1" x1="162" x2="162" y1="326" y2="321"/>
<line fill="#000000" stroke="#000000" stroke-width="1" x1="162" x2="162" y1="316" y2="311"/>
<line fill="#000000" stroke="#000000" stroke-width="1" x1="162" x2="167" y1="309" y2="309"/>
<line fill="#000000" stroke="#000000" stroke-width="1" x1="172" x2="177" y1="309" y2="309"/>
<line fill="#000000" stroke="#000000" stroke-width="1" x1="182" x2="187" y1="309" y2="309"/>
<line fill="#000000" stroke="#000000" stroke-width="1" x1="192" x2="197" y1="309" y2="309"/>
<line fill="#000000" stroke="#000000" stroke-width="1" x1="202" x2="207" y1="309" y2="309"/>
<line fill="#000000" stroke="#000000" stroke-width="1" x1="212" x2="217" y1="309" y2="309"/>
<line fill="#000000" stroke="#000000" stroke-width="1" x1="222" x2="227" y1="309" y2="309"/>
<line fill="#000000" stroke="#000000" stroke-width="1" x1="232" x2="237" y1="309" y2="309"/>
<line fill="#000000" stroke="#000000" stroke-width="1" x1="242" x2="247" y1="309" y2="309"/>
<line fill="#000000" stroke="#000000" stroke-width="1" x1="252" x2="257" y1="309" y2="309"/>
<line fill="#000000" stroke="#000000" stroke-width="1" x1="262" x2="267" y1="309" y2="309"/>
<line fill="#000000" stroke="#000000" stroke-width="1" x1="272" x2="277" y1="309" y2="309"/>
<line fill="#000000" stroke="#000000" stroke-width="1" x1="282" x2="287" y1="309" y2="309"/>
<line fill="#000000" stroke="#000000" stroke-width="1" x1="292" x2="297" y1="309" y2="309"/>
<line fill="#000000" stroke="#000000" stroke-width="1" x1="302" x2="307" y1="309" y2="309"/>
<line fill="#000000" stroke="#000000" stroke-width="1" x1="312" x2="317" y1="309" y2="309"/>
<line fill="#000000" stroke="#000000" stroke-width="1" x1="322" x2="327" y1="309" y2="309"/>
<line fill="#000000" stroke="#000000" stroke-width="1" x1="332" x2="337" y1="309" y2="309"/>
<line fill="#000000" stroke="#000000" stroke-width="1" x1="342" x2="347" y1="309" y2="309"/>
<line fill="#000000" stroke="#000000" stroke-width="1" x1="352" x2="357" y1="309" y2="309"/>
<line fill="#000000" stroke="#000000" stroke-width="1" x1="362" x2="367" y1="309" y2="309"/>
<line fill="#000000" stroke="#000000" stroke-width="1" x1="372" x2="377" y1="309" y2="309"/>
<line fill="#000000" stroke="#000000" stroke-width="1" x1="382" x2="387" y1="309" y2="309"/>
<line fill="#000000" stroke="#000000" stroke-width="1" x1="392" x2="394" y1="309" y2="309"/>
<line fill="#000000" stroke="#000000" stroke-width="1" x1="394" x2="394" y1="309" y2="304"/>
<line fill="#000000" stroke="#000000" stroke-width="1" x1="394" x2="394" y1="299" y2="294"/>
<line fill="#000000" stroke="#000000" stroke-width="1" x1="394" x2="394" y1="289" y2="284"/>
<line fill="#000000" stroke="#000000" stroke-width="1" x1="394" x2="394" y1="279" y2="274"/>
<line fill="#000000" stroke="#000000" stroke-width="1" x1="394" x2="394" y1="269" y2="264"/>
<polygon fill="#ffffff" points="394,263 401,275 387,275" stroke="#ffffff" stroke-width="1"/>
<polygon fill="none" points="394,263 401,275 387,275" stroke="#000000" stroke-width="1"/>
<polyline fill="none" points="410,341 410,263" stroke="#000000" stroke-width="1"/>
<line fill="#000000" stroke="#000000" stroke-width="1" x1="417" x2="410" y1="275" y2="263"/>
<line fill="#000000" stroke="#000000" stroke-width="1" x1="403" x2="410" y1="275" y2="263"/>
<text font-family="Dialog" font-size="12" x="382" y="293">
0..*</text>
<text font-family="Dialog" font-size="12" x="413" y="301">
observers</text>
<polyline fill="none" points="216,533 314,533" stroke="#000000" stroke-width="1"/>
<line fill="#000000" stroke="#000000" stroke-width="1" x1="302" x2="314" y1="540" y2="533"/>
<line fill="#000000" stroke="#000000" stroke-width="1" x1="302" x2="314" y1="526" y2="533"/>
<text font-family="Dialog" font-size="12" x="295" y="528">
1</text>
<text font-family="Dialog" font-size="12" x="275" y="548">
chat</text>
<polygon fill="#ffffff" points="834,493 1072,493 1072,516 1121,516 1121,708 834,708 834,493" stroke="#ffffff" stroke-width="1"/>
<rect fill="none" height="23" stroke="#000000" stroke-width="1" width="238" x="834" y="493"/>
<text font-family="Dialog" font-size="12" x="839" y="506">
io</text>
<rect fill="none" height="192" stroke="#000000" stroke-width="1" width="287" x="834" y="516"/>
<rect fill="#ffc8ff" height="152" stroke="#ffc8ff" stroke-width="1" width="263" x="846" y="541"/>
<rect fill="none" height="152" stroke="#000000" stroke-width="1" width="263" x="846" y="541"/>
<text font-family="Dialog" font-size="12" x="917" y="554">
PersistenceFacade</text>
<rect fill="#000000" height="1" stroke="#000000" stroke-width="1" width="263" x="846" y="564"/>
<rect fill="#000000" height="1" stroke="#000000" stroke-width="1" width="263" x="846" y="586"/>
<text font-family="Dialog" font-size="12" x="850" y="600">
getUser(String)</text>
<text font-family="Dialog" font-size="12" x="850" y="616">
putUser(UserData)</text>
<text font-family="Dialog" font-size="12" x="850" y="632">
getFriendship(String,String)</text>
<text font-family="Dialog" font-size="12" x="850" y="648">
putFriendship(Friendship)</text>
<text font-family="Dialog" font-size="12" x="850" y="664">
getFriends(String) : List&lt;String&gt;</text>
<text font-family="Dialog" font-size="12" x="850" y="680">
getPendingFriends(String) : List&lt;String&gt;</text>
<rect fill="#ffffc8" height="66" stroke="#ffffc8" stroke-width="1" width="94" x="674" y="429"/>
<rect fill="none" height="66" stroke="#000000" stroke-width="1" width="94" x="674" y="429"/>
<text font-family="Dialog" font-size="12" x="679" y="442">
Administrator</text>
<rect fill="#000000" height="1" stroke="#000000" stroke-width="1" width="94" x="674" y="452"/>
<rect fill="#000000" height="1" stroke="#000000" stroke-width="1" width="94" x="674" y="473"/>
<line fill="#000000" stroke="#000000" stroke-width="1" x1="730" x2="730" y1="429" y2="424"/>
<line fill="#000000" stroke="#000000" stroke-width="1" x1="730" x2="730" y1="419" y2="414"/>
<line fill="#000000" stroke="#000000" stroke-width="1" x1="730" x2="730" y1="409" y2="404"/>
<line fill="#000000" stroke="#000000" stroke-width="1" x1="730" x2="730" y1="399" y2="394"/>
<line fill="#000000" stroke="#000000" stroke-width="1" x1="730" x2="730" y1="389" y2="384"/>
<polygon fill="#ffffff" points="730,383 737,395 723,395" stroke="#ffffff" stroke-width="1"/>
<polygon fill="none" points="730,383 737,395 723,395" stroke="#000000" stroke-width="1"/>
<polyline fill="none" points="594,541 730,541 730,494" stroke="#000000" stroke-width="1"/>
<line fill="#000000" stroke="#000000" stroke-width="1" x1="737" x2="730" y1="506" y2="494"/>
<line fill="#000000" stroke="#000000" stroke-width="1" x1="723" x2="730" y1="506" y2="494"/>
<text font-family="Dialog" font-size="12" x="709" y="521">
1</text>
<text font-family="Dialog" font-size="12" x="732" y="516">
admin</text>
<rect fill="#c8c8ff" height="67" stroke="#c8c8ff" stroke-width="1" width="105" x="34" y="269"/>
<rect fill="none" height="67" stroke="#000000" stroke-width="1" width="105" x="34" y="269"/>
<text font-family="Dialog" font-size="12" x="55" y="301">
Command</text>
<text font-family="Dialog" font-size="12" x="38" y="283">
&lt;&lt;interface&gt;&gt;</text>
<rect fill="#000000" height="1" stroke="#000000" stroke-width="1" width="105" x="34" y="311"/>
<text font-family="Dialog" font-size="12" x="38" y="325">
execute()</text>
<polyline fill="none" points="106,446 106,335" stroke="#000000" stroke-width="1"/>
<line fill="#000000" stroke="#000000" stroke-width="1" x1="113" x2="106" y1="347" y2="335"/>
<line fill="#000000" stroke="#000000" stroke-width="1" x1="99" x2="106" y1="347" y2="335"/>
<text font-family="Dialog" font-size="12" x="78" y="362">
0..*</text>
<text font-family="Dialog" font-size="12" x="103" y="367">
commands</text>
<rect fill="#ffffc8" height="101" stroke="#ffffc8" stroke-width="1" width="125" x="506" y="189"/>
<rect fill="none" height="101" stroke="#000000" stroke-width="1" width="125" x="506" y="189"/>
<text font-family="Dialog" font-size="12" x="539" y="202">
UserData</text>
<rect fill="#000000" height="1" stroke="#000000" stroke-width="1" width="125" x="506" y="212"/>
<text font-family="Dialog" font-size="12" x="510" y="226">
nickname : String</text>
<text font-family="Dialog" font-size="12" x="510" y="242">
email : String</text>
<text font-family="Dialog" font-size="12" x="510" y="258">
password : char</text>
<rect fill="#000000" height="1" stroke="#000000" stroke-width="1" width="125" x="506" y="268"/>
<polyline fill="none" points="594,573 846,573" stroke="#000000" stroke-width="1"/>
<line fill="#000000" stroke="#000000" stroke-width="1" x1="834" x2="846" y1="580" y2="573"/>
<line fill="#000000" stroke="#000000" stroke-width="1" x1="834" x2="846" y1="566" y2="573"/>
<text font-family="Dialog" font-size="12" x="827" y="568">
1</text>
<line fill="#000000" stroke="#000000" stroke-width="1" x1="1050" x2="1050" y1="541" y2="536"/>
<line fill="#000000" stroke="#000000" stroke-width="1" x1="1050" x2="1050" y1="531" y2="526"/>
<line fill="#000000" stroke="#000000" stroke-width="1" x1="1050" x2="1050" y1="521" y2="516"/>
<line fill="#000000" stroke="#000000" stroke-width="1" x1="1050" x2="1050" y1="511" y2="506"/>
<line fill="#000000" stroke="#000000" stroke-width="1" x1="1050" x2="1050" y1="501" y2="496"/>
<line fill="#000000" stroke="#000000" stroke-width="1" x1="1050" x2="1050" y1="491" y2="486"/>
<line fill="#000000" stroke="#000000" stroke-width="1" x1="1050" x2="1050" y1="481" y2="476"/>
<line fill="#000000" stroke="#000000" stroke-width="1" x1="1050" x2="1050" y1="471" y2="466"/>
<line fill="#000000" stroke="#000000" stroke-width="1" x1="1050" x2="1050" y1="461" y2="456"/>
<line fill="#000000" stroke="#000000" stroke-width="1" x1="1050" x2="1050" y1="451" y2="446"/>
<line fill="#000000" stroke="#000000" stroke-width="1" x1="1050" x2="1050" y1="441" y2="436"/>
<line fill="#000000" stroke="#000000" stroke-width="1" x1="1050" x2="1050" y1="431" y2="426"/>
<line fill="#000000" stroke="#000000" stroke-width="1" x1="1050" x2="1050" y1="421" y2="416"/>
<line fill="#000000" stroke="#000000" stroke-width="1" x1="1050" x2="1050" y1="411" y2="406"/>
<line fill="#000000" stroke="#000000" stroke-width="1" x1="1050" x2="1050" y1="401" y2="396"/>
<line fill="#000000" stroke="#000000" stroke-width="1" x1="1050" x2="1050" y1="391" y2="386"/>
<line fill="#000000" stroke="#000000" stroke-width="1" x1="1050" x2="1050" y1="381" y2="376"/>
<line fill="#000000" stroke="#000000" stroke-width="1" x1="1050" x2="1050" y1="371" y2="366"/>
<line fill="#000000" stroke="#000000" stroke-width="1" x1="1050" x2="1050" y1="361" y2="356"/>
<line fill="#000000" stroke="#000000" stroke-width="1" x1="1050" x2="1050" y1="351" y2="346"/>
<line fill="#000000" stroke="#000000" stroke-width="1" x1="1050" x2="1050" y1="341" y2="336"/>
<line fill="#000000" stroke="#000000" stroke-width="1" x1="1050" x2="1050" y1="331" y2="326"/>
<line fill="#000000" stroke="#000000" stroke-width="1" x1="1050" x2="1050" y1="321" y2="316"/>
<line fill="#000000" stroke="#000000" stroke-width="1" x1="1050" x2="1050" y1="311" y2="306"/>
<line fill="#000000" stroke="#000000" stroke-width="1" x1="1050" x2="1050" y1="301" y2="296"/>
<line fill="#000000" stroke="#000000" stroke-width="1" x1="1050" x2="1050" y1="291" y2="286"/>
<line fill="#000000" stroke="#000000" stroke-width="1" x1="1050" x2="1050" y1="281" y2="276"/>
<line fill="#000000" stroke="#000000" stroke-width="1" x1="1050" x2="1050" y1="271" y2="266"/>
<line fill="#000000" stroke="#000000" stroke-width="1" x1="1050" x2="1050" y1="261" y2="256"/>
<line fill="#000000" stroke="#000000" stroke-width="1" x1="1050" x2="1050" y1="251" y2="246"/>
<line fill="#000000" stroke="#000000" stroke-width="1" x1="1050" x2="1050" y1="241" y2="236"/>
<line fill="#000000" stroke="#000000" stroke-width="1" x1="1050" x2="1050" y1="231" y2="226"/>
<line fill="#000000" stroke="#000000" stroke-width="1" x1="1050" x2="1045" y1="221" y2="221"/>
<line fill="#000000" stroke="#000000" stroke-width="1" x1="1040" x2="1035" y1="221" y2="221"/>
<line fill="#000000" stroke="#000000" stroke-width="1" x1="1030" x2="1025" y1="221" y2="221"/>
<line fill="#000000" stroke="#000000" stroke-width="1" x1="1020" x2="1015" y1="221" y2="221"/>
<line fill="#000000" stroke="#000000" stroke-width="1" x1="1010" x2="1005" y1="221" y2="221"/>
<line fill="#000000" stroke="#000000" stroke-width="1" x1="1000" x2="995" y1="221" y2="221"/>
<line fill="#000000" stroke="#000000" stroke-width="1" x1="990" x2="985" y1="221" y2="221"/>
<line fill="#000000" stroke="#000000" stroke-width="1" x1="980" x2="975" y1="221" y2="221"/>
<line fill="#000000" stroke="#000000" stroke-width="1" x1="970" x2="965" y1="221" y2="221"/>
<line fill="#000000" stroke="#000000" stroke-width="1" x1="960" x2="955" y1="221" y2="221"/>
<line fill="#000000" stroke="#000000" stroke-width="1" x1="950" x2="945" y1="221" y2="221"/>
<line fill="#000000" stroke="#000000" stroke-width="1" x1="940" x2="935" y1="221" y2="221"/>
<line fill="#000000" stroke="#000000" stroke-width="1" x1="930" x2="925" y1="221" y2="221"/>
<line fill="#000000" stroke="#000000" stroke-width="1" x1="920" x2="915" y1="221" y2="221"/>
<line fill="#000000" stroke="#000000" stroke-width="1" x1="910" x2="905" y1="221" y2="221"/>
<line fill="#000000" stroke="#000000" stroke-width="1" x1="900" x2="895" y1="221" y2="221"/>
<line fill="#000000" stroke="#000000" stroke-width="1" x1="890" x2="885" y1="221" y2="221"/>
<line fill="#000000" stroke="#000000" stroke-width="1" x1="880" x2="875" y1="221" y2="221"/>
<line fill="#000000" stroke="#000000" stroke-width="1" x1="870" x2="865" y1="221" y2="221"/>
<line fill="#000000" stroke="#000000" stroke-width="1" x1="860" x2="855" y1="221" y2="221"/>
<line fill="#000000" stroke="#000000" stroke-width="1" x1="850" x2="845" y1="221" y2="221"/>
<line fill="#000000" stroke="#000000" stroke-width="1" x1="840" x2="835" y1="221" y2="221"/>
<line fill="#000000" stroke="#000000" stroke-width="1" x1="830" x2="825" y1="221" y2="221"/>
<line fill="#000000" stroke="#000000" stroke-width="1" x1="820" x2="815" y1="221" y2="221"/>
<line fill="#000000" stroke="#000000" stroke-width="1" x1="810" x2="805" y1="221" y2="221"/>
<line fill="#000000" stroke="#000000" stroke-width="1" x1="800" x2="795" y1="221" y2="221"/>
<line fill="#000000" stroke="#000000" stroke-width="1" x1="790" x2="785" y1="221" y2="221"/>
<line fill="#000000" stroke="#000000" stroke-width="1" x1="780" x2="775" y1="221" y2="221"/>
<line fill="#000000" stroke="#000000" stroke-width="1" x1="770" x2="765" y1="221" y2="221"/>
<line fill="#000000" stroke="#000000" stroke-width="1" x1="760" x2="755" y1="221" y2="221"/>
<line fill="#000000" stroke="#000000" stroke-width="1" x1="750" x2="745" y1="221" y2="221"/>
<line fill="#000000" stroke="#000000" stroke-width="1" x1="740" x2="735" y1="221" y2="221"/>
<line fill="#000000" stroke="#000000" stroke-width="1" x1="730" x2="725" y1="221" y2="221"/>
<line fill="#000000" stroke="#000000" stroke-width="1" x1="720" x2="715" y1="221" y2="221"/>
<line fill="#000000" stroke="#000000" stroke-width="1" x1="710" x2="705" y1="221" y2="221"/>
<line fill="#000000" stroke="#000000" stroke-width="1" x1="700" x2="695" y1="221" y2="221"/>
<line fill="#000000" stroke="#000000" stroke-width="1" x1="690" x2="685" y1="221" y2="221"/>
<line fill="#000000" stroke="#000000" stroke-width="1" x1="680" x2="675" y1="221" y2="221"/>
<line fill="#000000" stroke="#000000" stroke-width="1" x1="670" x2="665" y1="221" y2="221"/>
<line fill="#000000" stroke="#000000" stroke-width="1" x1="660" x2="655" y1="221" y2="221"/>
<line fill="#000000" stroke="#000000" stroke-width="1" x1="650" x2="645" y1="221" y2="221"/>
<line fill="#000000" stroke="#000000" stroke-width="1" x1="640" x2="635" y1="221" y2="221"/>
<line fill="#000000" stroke="#000000" stroke-width="1" x1="642" x2="630" y1="214" y2="221"/>
<line fill="#000000" stroke="#000000" stroke-width="1" x1="642" x2="630" y1="228" y2="221"/>
<rect fill="#ffffc8" height="101" stroke="#ffffc8" stroke-width="1" width="133" x="666" y="581"/>
<rect fill="none" height="101" stroke="#000000" stroke-width="1" width="133" x="666" y="581"/>
<text font-family="Dialog" font-size="12" x="700" y="594">
Friendship</text>
<rect fill="#000000" height="1" stroke="#000000" stroke-width="1" width="133" x="666" y="604"/>
<text font-family="Dialog" font-size="12" x="670" y="618">
requester : String</text>
<text font-family="Dialog" font-size="12" x="670" y="634">
requested : String</text>
<text font-family="Dialog" font-size="12" x="670" y="650">
status : Status</text>
<rect fill="#000000" height="1" stroke="#000000" stroke-width="1" width="133" x="666" y="660"/>
<line fill="#000000" stroke="#000000" stroke-width="1" x1="594" x2="599" y1="629" y2="629"/>
<line fill="#000000" stroke="#000000" stroke-width="1" x1="604" x2="609" y1="629" y2="629"/>
<line fill="#000000" stroke="#000000" stroke-width="1" x1="614" x2="619" y1="629" y2="629"/>
<line fill="#000000" stroke="#000000" stroke-width="1" x1="624" x2="629" y1="629" y2="629"/>
<line fill="#000000" stroke="#000000" stroke-width="1" x1="634" x2="639" y1="629" y2="629"/>
<line fill="#000000" stroke="#000000" stroke-width="1" x1="644" x2="649" y1="629" y2="629"/>
<line fill="#000000" stroke="#000000" stroke-width="1" x1="654" x2="659" y1="629" y2="629"/>
<line fill="#000000" stroke="#000000" stroke-width="1" x1="664" x2="666" y1="629" y2="629"/>
<line fill="#000000" stroke="#000000" stroke-width="1" x1="654" x2="666" y1="636" y2="629"/>
<line fill="#000000" stroke="#000000" stroke-width="1" x1="654" x2="666" y1="622" y2="629"/>
<line fill="#000000" stroke="#000000" stroke-width="1" x1="846" x2="841" y1="629" y2="629"/>
<line fill="#000000" stroke="#000000" stroke-width="1" x1="836" x2="831" y1="629" y2="629"/>
<line fill="#000000" stroke="#000000" stroke-width="1" x1="826" x2="821" y1="629" y2="629"/>
<line fill="#000000" stroke="#000000" stroke-width="1" x1="816" x2="811" y1="629" y2="629"/>
<line fill="#000000" stroke="#000000" stroke-width="1" x1="806" x2="801" y1="629" y2="629"/>
<line fill="#000000" stroke="#000000" stroke-width="1" x1="810" x2="798" y1="622" y2="629"/>
<line fill="#000000" stroke="#000000" stroke-width="1" x1="810" x2="798" y1="636" y2="629"/>
<line fill="#000000" stroke="#000000" stroke-width="1" x1="458" x2="458" y1="486" y2="481"/>
<line fill="#000000" stroke="#000000" stroke-width="1" x1="458" x2="458" y1="476" y2="471"/>
<line fill="#000000" stroke="#000000" stroke-width="1" x1="458" x2="458" y1="466" y2="461"/>
<line fill="#000000" stroke="#000000" stroke-width="1" x1="458" x2="458" y1="456" y2="451"/>
<line fill="#000000" stroke="#000000" stroke-width="1" x1="458" x2="458" y1="446" y2="444"/>
<line fill="#000000" stroke="#000000" stroke-width="1" x1="465" x2="458" y1="456" y2="444"/>
<line fill="#000000" stroke="#000000" stroke-width="1" x1="451" x2="458" y1="456" y2="444"/>
<polyline fill="none" points="538,341 538,289" stroke="#000000" stroke-width="1"/>
<polygon fill="#000000" points="538,341 533,331 538,321 543,331" stroke="#000000" stroke-width="1"/>
<polygon fill="none" points="538,341 533,331 538,321 543,331" stroke="#000000" stroke-width="1"/>
<line fill="#000000" stroke="#000000" stroke-width="1" x1="545" x2="538" y1="301" y2="289"/>
<line fill="#000000" stroke="#000000" stroke-width="1" x1="531" x2="538" y1="301" y2="289"/>
<text font-family="Dialog" font-size="12" x="517" y="316">
1</text>
<text font-family="Dialog" font-size="12" x="544" y="313">
data</text>
</svg>
